<?xml version="1.0" encoding="UTF-8" standalone="no"?>
<!-- Uploaded to: SVG Repo, www.svgrepo.com, Generator: SVG Repo Mixer Tools -->

<svg
   version="1.1"
   id="Layer_1"
   width="512"
   height="512"
   viewBox="0 0 512 512"
   enable-background="new 0 0 512 512"
   xml:space="preserve"
   sodipodi:docname="vinyl-record.svg"
   inkscape:version="1.2.2 (b0a8486541, 2022-12-01)"
   xmlns:inkscape="http://www.inkscape.org/namespaces/inkscape"
   xmlns:sodipodi="http://sodipodi.sourceforge.net/DTD/sodipodi-0.dtd"
   xmlns="http://www.w3.org/2000/svg"
   xmlns:svg="http://www.w3.org/2000/svg"><defs
   id="defs9"><filter
     style="color-interpolation-filters:sRGB;"
     inkscape:label="Drop Shadow"
     id="filter309"
     x="-0.070752154"
     y="-0.061691557"
     width="1.1985625"
     height="1.1731344"><feFlood
       flood-opacity="0.498039"
       flood-color="rgb(0,0,0)"
       result="flood"
       id="feFlood299" /><feComposite
       in="flood"
       in2="SourceGraphic"
       operator="in"
       result="composite1"
       id="feComposite301" /><feGaussianBlur
       in="composite1"
       stdDeviation="3.1"
       result="blur"
       id="feGaussianBlur303" /><feOffset
       dx="6"
       dy="6"
       result="offset"
       id="feOffset305" /><feComposite
       in="SourceGraphic"
       in2="offset"
       operator="over"
       result="fbSourceGraphic"
       id="feComposite307" /><feColorMatrix
       result="fbSourceGraphicAlpha"
       in="fbSourceGraphic"
       values="0 0 0 -1 0 0 0 0 -1 0 0 0 0 -1 0 0 0 0 1 0"
       id="feColorMatrix311" /><feFlood
       id="feFlood313"
       flood-opacity="0.498039"
       flood-color="rgb(0,0,0)"
       result="flood"
       in="fbSourceGraphic" /><feComposite
       in2="fbSourceGraphic"
       id="feComposite315"
       in="flood"
       operator="in"
       result="composite1" /><feGaussianBlur
       id="feGaussianBlur317"
       in="composite1"
       stdDeviation="3.1"
       result="blur" /><feOffset
       id="feOffset319"
       dx="6"
       dy="6"
       result="offset" /><feComposite
       in2="offset"
       id="feComposite321"
       in="fbSourceGraphic"
       operator="over"
       result="composite2" /></filter></defs><sodipodi:namedview
   id="namedview9"
   pagecolor="#ffffff"
   bordercolor="#000000"
   borderopacity="0.25"
   inkscape:showpageshadow="2"
   inkscape:pageopacity="0.0"
   inkscape:pagecheckerboard="0"
   inkscape:deskcolor="#d1d1d1"
   inkscape:zoom="1.578125"
   inkscape:cx="257.26733"
   inkscape:cy="256"
   inkscape:window-width="1920"
   inkscape:window-height="1011"
   inkscape:window-x="0"
   inkscape:window-y="0"
   inkscape:window-maximized="1"
   inkscape:current-layer="Layer_1"
   showgrid="false" />
<g
   id="vinyl_record">
	<g
   id="g1">
		<path
   fill="#434A54"
   d="M256,0C114.609,0,0,114.617,0,256c0,141.375,114.609,256,256,256c141.375,0,256-114.625,256-256    C512,114.617,397.375,0,256,0z M256,266.664c-5.891,0-10.672-4.773-10.672-10.664s4.781-10.664,10.672-10.664    s10.656,4.773,10.656,10.664S261.891,266.664,256,266.664z"
   id="path1" />
	</g>
	<g
   id="g7">
		<path
   fill="#656D78"
   d="M197.875,118.391c18.391-7.781,37.953-11.727,58.125-11.727c5.891,0,10.656-4.773,10.656-10.664    S261.891,85.336,256,85.336c-94.266,0-170.672,76.406-170.672,170.664c0,5.891,4.781,10.664,10.672,10.664    s10.656-4.773,10.656-10.664c0-20.172,3.953-39.727,11.734-58.117c7.516-17.781,18.297-33.758,32.016-47.477    S180.094,125.914,197.875,118.391z"
   id="path2" />
		<path
   fill="#656D78"
   d="M314.109,393.609c-18.391,7.781-37.938,11.734-58.109,11.734c-5.891,0-10.672,4.766-10.672,10.656    s4.781,10.656,10.672,10.656c94.25,0,170.656-76.406,170.656-170.656c0-5.891-4.766-10.664-10.656-10.664    s-10.672,4.773-10.672,10.664c0,20.172-3.938,39.719-11.719,58.125c-7.531,17.781-18.297,33.75-32.016,47.469    S331.891,386.094,314.109,393.609z"
   id="path3" />
		<path
   fill="#656D78"
   d="M181.266,79.078C204.922,69.07,230.062,64,256,64c5.891,0,10.656-4.773,10.656-10.664    S261.891,42.664,256,42.664C138.172,42.664,42.656,138.18,42.656,256c0,5.891,4.781,10.664,10.672,10.664S64,261.891,64,256    c0-25.93,5.062-51.07,15.078-74.727c9.672-22.859,23.516-43.398,41.156-61.039S158.406,88.75,181.266,79.078z"
   id="path4" />
		<path
   fill="#656D78"
   d="M256,149.336c5.891,0,10.656-4.781,10.656-10.672S261.891,128,256,128l0,0c-70.703,0-128,57.305-128,128    c0,5.891,4.766,10.664,10.656,10.664s10.672-4.773,10.672-10.664c0-28.492,11.094-55.281,31.234-75.422    c20.156-20.148,46.938-31.242,75.422-31.242H256z"
   id="path5" />
		<path
   fill="#656D78"
   d="M245.328,373.344c0,5.875,4.781,10.656,10.672,10.656c70.688,0,128-57.312,128-128    c0-5.891-4.781-10.664-10.672-10.664s-10.672,4.773-10.672,10.664c0,28.5-11.094,55.281-31.234,75.422    S284.484,362.656,256,362.656C250.109,362.656,245.328,367.438,245.328,373.344z"
   id="path6" />
		<path
   fill="#656D78"
   d="M458.656,245.336c-5.891,0-10.656,4.773-10.656,10.664c0,25.938-5.078,51.062-15.078,74.719    c-9.672,22.875-23.516,43.406-41.156,61.047s-38.188,31.484-61.047,41.156C307.062,442.938,281.922,448,256,448    c-5.891,0-10.672,4.781-10.672,10.656c0,5.906,4.781,10.688,10.672,10.688c117.812,0,213.328-95.531,213.328-213.344    C469.328,250.109,464.547,245.336,458.656,245.336z"
   id="path7" />
	</g>
	<path
   fill="#ED5564"
   d="M256,181.336c-41.172,0-74.672,33.492-74.672,74.664s33.5,74.656,74.672,74.656   s74.656-33.484,74.656-74.656S297.172,181.336,256,181.336z M256,266.664c-5.891,0-10.672-4.773-10.672-10.664   s4.781-10.664,10.672-10.664s10.656,4.773,10.656,10.664S261.891,266.664,256,266.664z"
   id="path8" />
	<path
   fill="#DA4453"
   d="M256,170.664c-47.125,0-85.344,38.211-85.344,85.336s38.219,85.344,85.344,85.344   s85.328-38.219,85.328-85.344S303.125,170.664,256,170.664z M256,320c-35.297,0-64-28.719-64-64c0-35.289,28.703-64,64-64   c35.281,0,64,28.711,64,64C320,291.281,291.281,320,256,320z"
   id="path9" />
</g>
<path
   style="fill:#0d6efd;fill-opacity:0.999999;stroke-width:0.750799;filter:url(#filter309)"
   d="m 316.2483,505.61573 c -10.95308,-2.08409 -18.9467,-7.94404 -23.35144,-17.1184 -7.43529,-15.48654 3.64316,-37.32208 24.57012,-48.42745 10.11096,-5.36562 13.76607,-6.32477 25.75456,-6.75836 l 10.77942,-0.38987 v -70.41768 -70.41768 l 3.83673,-0.8173 c 8.61409,-1.83499 140.7125,-26.28879 142.01091,-26.28879 0.89975,0 1.04468,12.52816 1.04468,90.30871 v 90.30871 l -2.6208,5.52968 c -5.46314,11.52683 -13.34306,19.43668 -25.47505,25.57173 -9.4621,4.78493 -15.07516,6.11884 -25.61851,6.08821 -7.15579,-0.0208 -9.64388,-0.34483 -13.51993,-1.76069 -9.04274,-3.30314 -14.70622,-8.2717 -17.93841,-15.73726 -2.90377,-6.70696 -3.10692,-11.94772 -0.74997,-19.34721 2.41278,-7.57483 5.78285,-13.00202 11.6118,-18.69966 12.13526,-11.86195 25.15837,-17.21042 41.97264,-17.23783 l 8.22158,-0.0134 V 360.3927 310.79423 l -48.78142,9.20303 c -26.82977,5.06169 -48.94582,9.36056 -49.14681,9.55308 -0.20096,0.19252 -0.47585,31.64709 -0.61085,69.89902 l -0.24546,69.54897 -2.92167,5.93679 c -4.86149,9.87847 -14.24058,19.3786 -24.49881,24.81501 -9.49158,5.03005 -24.8871,7.66105 -34.32331,5.86558 z"
   id="path11" /></svg>
